<svg xmlns="http://www.w3.org/2000/svg" width="1534" height="500" viewBox="0 0 1534 500" version="1.1"><path d="" stroke="none" fill="#ffacbc" fill-rule="evenodd"/><path d="M 1057 86.623 C 1040.809 87.376, 1021.717 89.184, 1005 91.548 C 944.801 100.063, 924.643 104.247, 895.280 114.323 C 886.601 117.301, 866.149 124.291, 849.830 129.856 C 833.512 135.421, 816.187 141.735, 811.330 143.888 C 799.033 149.338, 768.144 163.869, 758.311 168.830 C 753.808 171.102, 742.108 176.141, 732.311 180.028 C 722.515 183.916, 707.661 190.001, 699.302 193.551 C 682.631 200.631, 665.940 206.579, 608 226.086 C 565.079 240.537, 560.066 241.954, 541.500 244.888 C 500.930 251.299, 488.506 251.867, 449.500 249.094 C 433.550 247.960, 413.750 246.550, 405.500 245.960 C 397.250 245.371, 384.875 244.018, 378 242.954 C 371.125 241.891, 361.675 240.531, 357 239.933 C 341.745 237.982, 288.038 227.010, 264 220.934 C 242.734 215.559, 221.708 210.870, 186 203.539 C 179.125 202.127, 170.575 200.363, 167 199.619 C 159.915 198.144, 110.087 186.174, 98 183.042 C 85.377 179.772, 31.874 164.946, 25.500 162.952 C 22.200 161.919, 15.675 160.130, 11 158.974 C 6.325 157.819, 1.938 156.692, 1.250 156.469 C 0.253 156.145, 0 190.907, 0 328.032 L 0 500.001 767.250 499.751 L 1534.500 499.500 1534.500 326.333 C 1534.500 231.092, 1534.209 152.876, 1533.853 152.520 C 1533.498 152.164, 1524.948 150.368, 1514.853 148.529 C 1504.759 146.689, 1487.950 143.099, 1477.500 140.550 C 1467.050 138.001, 1450.400 134.110, 1440.500 131.904 C 1430.600 129.697, 1415.301 126.083, 1406.502 123.872 C 1384.290 118.292, 1375.027 116.477, 1353.416 113.475 C 1343.101 112.042, 1326.300 109.132, 1316.081 107.007 C 1305.861 104.883, 1288.050 101.956, 1276.500 100.502 C 1264.950 99.049, 1249.200 96.776, 1241.500 95.453 C 1233.800 94.129, 1218.500 92.104, 1207.500 90.953 C 1196.500 89.802, 1183.900 88.417, 1179.500 87.876 C 1171.790 86.928, 1072.331 85.910, 1057 86.623 M 0.489 328 C 0.489 422.875, 0.606 461.688, 0.750 414.250 C 0.894 366.813, 0.894 289.188, 0.750 241.750 C 0.606 194.313, 0.489 233.125, 0.489 328" stroke="none" fill="#fcacbc" fill-rule="evenodd"/></svg>